<mxfile host="app.diagrams.net" agent="Mozilla/5.0 (Macintosh; Intel Mac OS X 10_15_7) AppleWebKit/537.36 (KHTML, like Gecko) Chrome/134.0.0.0 Safari/537.36" version="26.2.8">
  <diagram name="Page-1" id="boo6m4YLyro9kjkW5rnf">
    <mxGraphModel dx="945" dy="433" grid="1" gridSize="10" guides="1" tooltips="1" connect="1" arrows="1" fold="1" page="1" pageScale="1" pageWidth="827" pageHeight="1169" math="0" shadow="0">
      <root>
        <mxCell id="0" />
        <mxCell id="1" parent="0" />
        <mxCell id="J7mu65JZnzgbX4srb6xb-15" value="" style="endArrow=none;html=1;rounded=0;" edge="1" parent="1" source="J7mu65JZnzgbX4srb6xb-8" target="J7mu65JZnzgbX4srb6xb-2">
          <mxGeometry width="50" height="50" relative="1" as="geometry">
            <mxPoint x="340" y="430" as="sourcePoint" />
            <mxPoint x="390" y="380" as="targetPoint" />
          </mxGeometry>
        </mxCell>
        <mxCell id="J7mu65JZnzgbX4srb6xb-14" value="" style="endArrow=none;html=1;rounded=0;strokeWidth=2;" edge="1" parent="1" source="J7mu65JZnzgbX4srb6xb-3" target="J7mu65JZnzgbX4srb6xb-8">
          <mxGeometry width="50" height="50" relative="1" as="geometry">
            <mxPoint x="290" y="430" as="sourcePoint" />
            <mxPoint x="340" y="380" as="targetPoint" />
          </mxGeometry>
        </mxCell>
        <mxCell id="J7mu65JZnzgbX4srb6xb-1" value="" style="ellipse;whiteSpace=wrap;html=1;aspect=fixed;fillColor=#fff2cc;strokeColor=#d6b656;" vertex="1" parent="1">
          <mxGeometry x="260" y="350" width="20" height="20" as="geometry" />
        </mxCell>
        <mxCell id="J7mu65JZnzgbX4srb6xb-2" value="" style="ellipse;whiteSpace=wrap;html=1;aspect=fixed;fillColor=#dae8fc;strokeColor=#6c8ebf;" vertex="1" parent="1">
          <mxGeometry x="404" y="410" width="30" height="30" as="geometry" />
        </mxCell>
        <mxCell id="J7mu65JZnzgbX4srb6xb-3" value="" style="ellipse;whiteSpace=wrap;html=1;aspect=fixed;fillColor=#e1d5e7;strokeColor=#9673a6;" vertex="1" parent="1">
          <mxGeometry x="220" y="420" width="30" height="30" as="geometry" />
        </mxCell>
        <mxCell id="J7mu65JZnzgbX4srb6xb-4" value="" style="ellipse;whiteSpace=wrap;html=1;aspect=fixed;fillColor=#fff2cc;strokeColor=#d6b656;" vertex="1" parent="1">
          <mxGeometry x="260" y="385" width="30" height="30" as="geometry" />
        </mxCell>
        <mxCell id="J7mu65JZnzgbX4srb6xb-5" value="" style="ellipse;whiteSpace=wrap;html=1;aspect=fixed;fillColor=#fff2cc;strokeColor=#d6b656;" vertex="1" parent="1">
          <mxGeometry x="357.5" y="445.67" width="20" height="20" as="geometry" />
        </mxCell>
        <mxCell id="J7mu65JZnzgbX4srb6xb-6" value="" style="ellipse;whiteSpace=wrap;html=1;aspect=fixed;fillColor=#fff2cc;strokeColor=#d6b656;" vertex="1" parent="1">
          <mxGeometry x="370" y="390" width="25" height="25" as="geometry" />
        </mxCell>
        <mxCell id="J7mu65JZnzgbX4srb6xb-7" value="" style="ellipse;whiteSpace=wrap;html=1;aspect=fixed;fillColor=#dae8fc;strokeColor=#6c8ebf;" vertex="1" parent="1">
          <mxGeometry x="347.5" y="345" width="30" height="30" as="geometry" />
        </mxCell>
        <mxCell id="J7mu65JZnzgbX4srb6xb-8" value="" style="ellipse;whiteSpace=wrap;html=1;aspect=fixed;fillColor=#dae8fc;strokeColor=#6c8ebf;" vertex="1" parent="1">
          <mxGeometry x="300" y="420" width="30" height="30" as="geometry" />
        </mxCell>
        <mxCell id="J7mu65JZnzgbX4srb6xb-9" value="" style="ellipse;whiteSpace=wrap;html=1;aspect=fixed;fillColor=#fff2cc;strokeColor=#d6b656;" vertex="1" parent="1">
          <mxGeometry x="180" y="445" width="20" height="20" as="geometry" />
        </mxCell>
        <mxCell id="J7mu65JZnzgbX4srb6xb-10" value="" style="ellipse;whiteSpace=wrap;html=1;aspect=fixed;fillColor=#fff2cc;strokeColor=#d6b656;" vertex="1" parent="1">
          <mxGeometry x="300" y="365" width="30" height="30" as="geometry" />
        </mxCell>
        <mxCell id="J7mu65JZnzgbX4srb6xb-11" value="" style="ellipse;whiteSpace=wrap;html=1;aspect=fixed;fillColor=#fff2cc;strokeColor=#d6b656;" vertex="1" parent="1">
          <mxGeometry x="120" y="415" width="20" height="20" as="geometry" />
        </mxCell>
        <mxCell id="J7mu65JZnzgbX4srb6xb-12" value="" style="ellipse;whiteSpace=wrap;html=1;aspect=fixed;fillColor=#dae8fc;strokeColor=#6c8ebf;" vertex="1" parent="1">
          <mxGeometry x="170" y="380" width="20" height="20" as="geometry" />
        </mxCell>
        <mxCell id="J7mu65JZnzgbX4srb6xb-13" value="" style="ellipse;whiteSpace=wrap;html=1;aspect=fixed;fillColor=#dae8fc;strokeColor=#6c8ebf;" vertex="1" parent="1">
          <mxGeometry x="150" y="410" width="30" height="30" as="geometry" />
        </mxCell>
        <mxCell id="J7mu65JZnzgbX4srb6xb-16" value="" style="endArrow=none;html=1;rounded=0;strokeWidth=2;" edge="1" parent="1" source="J7mu65JZnzgbX4srb6xb-8" target="J7mu65JZnzgbX4srb6xb-5">
          <mxGeometry width="50" height="50" relative="1" as="geometry">
            <mxPoint x="310" y="390" as="sourcePoint" />
            <mxPoint x="400" y="395" as="targetPoint" />
          </mxGeometry>
        </mxCell>
        <mxCell id="J7mu65JZnzgbX4srb6xb-17" value="" style="endArrow=none;html=1;rounded=0;strokeWidth=2;" edge="1" parent="1" source="J7mu65JZnzgbX4srb6xb-6" target="J7mu65JZnzgbX4srb6xb-2">
          <mxGeometry width="50" height="50" relative="1" as="geometry">
            <mxPoint x="340" y="430" as="sourcePoint" />
            <mxPoint x="390" y="380" as="targetPoint" />
          </mxGeometry>
        </mxCell>
        <mxCell id="J7mu65JZnzgbX4srb6xb-18" value="" style="endArrow=none;html=1;rounded=0;" edge="1" parent="1" source="J7mu65JZnzgbX4srb6xb-6" target="J7mu65JZnzgbX4srb6xb-7">
          <mxGeometry width="50" height="50" relative="1" as="geometry">
            <mxPoint x="340" y="430" as="sourcePoint" />
            <mxPoint x="390" y="380" as="targetPoint" />
          </mxGeometry>
        </mxCell>
        <mxCell id="J7mu65JZnzgbX4srb6xb-19" value="" style="ellipse;whiteSpace=wrap;html=1;aspect=fixed;fillColor=#fff2cc;strokeColor=#d6b656;" vertex="1" parent="1">
          <mxGeometry x="140" y="380" width="20" height="20" as="geometry" />
        </mxCell>
        <mxCell id="J7mu65JZnzgbX4srb6xb-20" value="" style="ellipse;whiteSpace=wrap;html=1;aspect=fixed;fillColor=#fff2cc;strokeColor=#d6b656;" vertex="1" parent="1">
          <mxGeometry x="250" y="470" width="20" height="20" as="geometry" />
        </mxCell>
        <mxCell id="J7mu65JZnzgbX4srb6xb-21" value="" style="ellipse;whiteSpace=wrap;html=1;aspect=fixed;fillColor=#dae8fc;strokeColor=#6c8ebf;" vertex="1" parent="1">
          <mxGeometry x="130" y="355" width="15" height="15" as="geometry" />
        </mxCell>
        <mxCell id="J7mu65JZnzgbX4srb6xb-22" value="" style="ellipse;whiteSpace=wrap;html=1;aspect=fixed;fillColor=#dae8fc;strokeColor=#6c8ebf;" vertex="1" parent="1">
          <mxGeometry x="327.5" y="470" width="20" height="20" as="geometry" />
        </mxCell>
        <mxCell id="J7mu65JZnzgbX4srb6xb-23" value="" style="ellipse;whiteSpace=wrap;html=1;aspect=fixed;fillColor=#fff2cc;strokeColor=#d6b656;" vertex="1" parent="1">
          <mxGeometry x="135" y="447.5" width="15" height="15" as="geometry" />
        </mxCell>
        <mxCell id="J7mu65JZnzgbX4srb6xb-25" value="" style="endArrow=none;html=1;rounded=0;" edge="1" parent="1" source="J7mu65JZnzgbX4srb6xb-20" target="J7mu65JZnzgbX4srb6xb-3">
          <mxGeometry width="50" height="50" relative="1" as="geometry">
            <mxPoint x="340" y="460" as="sourcePoint" />
            <mxPoint x="390" y="410" as="targetPoint" />
          </mxGeometry>
        </mxCell>
        <mxCell id="J7mu65JZnzgbX4srb6xb-26" value="" style="endArrow=none;html=1;rounded=0;" edge="1" parent="1" source="J7mu65JZnzgbX4srb6xb-20" target="J7mu65JZnzgbX4srb6xb-22">
          <mxGeometry width="50" height="50" relative="1" as="geometry">
            <mxPoint x="340" y="460" as="sourcePoint" />
            <mxPoint x="390" y="410" as="targetPoint" />
          </mxGeometry>
        </mxCell>
        <mxCell id="J7mu65JZnzgbX4srb6xb-27" value="" style="endArrow=none;html=1;rounded=0;strokeWidth=2;" edge="1" parent="1" source="J7mu65JZnzgbX4srb6xb-3" target="J7mu65JZnzgbX4srb6xb-13">
          <mxGeometry width="50" height="50" relative="1" as="geometry">
            <mxPoint x="340" y="460" as="sourcePoint" />
            <mxPoint x="390" y="410" as="targetPoint" />
          </mxGeometry>
        </mxCell>
        <mxCell id="J7mu65JZnzgbX4srb6xb-28" value="" style="endArrow=none;html=1;rounded=0;strokeWidth=0.5;" edge="1" parent="1" source="J7mu65JZnzgbX4srb6xb-22" target="J7mu65JZnzgbX4srb6xb-5">
          <mxGeometry width="50" height="50" relative="1" as="geometry">
            <mxPoint x="340" y="460" as="sourcePoint" />
            <mxPoint x="390" y="410" as="targetPoint" />
          </mxGeometry>
        </mxCell>
        <mxCell id="J7mu65JZnzgbX4srb6xb-29" value="" style="endArrow=none;html=1;rounded=0;" edge="1" parent="1" source="J7mu65JZnzgbX4srb6xb-8" target="J7mu65JZnzgbX4srb6xb-10">
          <mxGeometry width="50" height="50" relative="1" as="geometry">
            <mxPoint x="340" y="460" as="sourcePoint" />
            <mxPoint x="390" y="410" as="targetPoint" />
          </mxGeometry>
        </mxCell>
        <mxCell id="J7mu65JZnzgbX4srb6xb-30" value="" style="endArrow=none;html=1;rounded=0;" edge="1" parent="1" source="J7mu65JZnzgbX4srb6xb-1" target="J7mu65JZnzgbX4srb6xb-10">
          <mxGeometry width="50" height="50" relative="1" as="geometry">
            <mxPoint x="340" y="460" as="sourcePoint" />
            <mxPoint x="390" y="410" as="targetPoint" />
          </mxGeometry>
        </mxCell>
        <mxCell id="J7mu65JZnzgbX4srb6xb-31" value="" style="endArrow=none;html=1;rounded=0;" edge="1" parent="1" source="J7mu65JZnzgbX4srb6xb-7" target="J7mu65JZnzgbX4srb6xb-10">
          <mxGeometry width="50" height="50" relative="1" as="geometry">
            <mxPoint x="340" y="460" as="sourcePoint" />
            <mxPoint x="390" y="410" as="targetPoint" />
          </mxGeometry>
        </mxCell>
        <mxCell id="J7mu65JZnzgbX4srb6xb-32" value="" style="endArrow=none;html=1;rounded=0;" edge="1" parent="1" source="J7mu65JZnzgbX4srb6xb-13" target="J7mu65JZnzgbX4srb6xb-11">
          <mxGeometry width="50" height="50" relative="1" as="geometry">
            <mxPoint x="340" y="460" as="sourcePoint" />
            <mxPoint x="390" y="410" as="targetPoint" />
          </mxGeometry>
        </mxCell>
        <mxCell id="J7mu65JZnzgbX4srb6xb-33" value="" style="endArrow=none;html=1;rounded=0;" edge="1" parent="1" source="J7mu65JZnzgbX4srb6xb-4" target="J7mu65JZnzgbX4srb6xb-8">
          <mxGeometry width="50" height="50" relative="1" as="geometry">
            <mxPoint x="340" y="460" as="sourcePoint" />
            <mxPoint x="390" y="410" as="targetPoint" />
          </mxGeometry>
        </mxCell>
        <mxCell id="J7mu65JZnzgbX4srb6xb-34" value="" style="endArrow=none;html=1;rounded=0;" edge="1" parent="1" source="J7mu65JZnzgbX4srb6xb-13" target="J7mu65JZnzgbX4srb6xb-12">
          <mxGeometry width="50" height="50" relative="1" as="geometry">
            <mxPoint x="340" y="460" as="sourcePoint" />
            <mxPoint x="390" y="410" as="targetPoint" />
          </mxGeometry>
        </mxCell>
        <mxCell id="J7mu65JZnzgbX4srb6xb-35" value="" style="endArrow=none;html=1;rounded=0;strokeWidth=0.5;" edge="1" parent="1" source="J7mu65JZnzgbX4srb6xb-13" target="J7mu65JZnzgbX4srb6xb-9">
          <mxGeometry width="50" height="50" relative="1" as="geometry">
            <mxPoint x="340" y="460" as="sourcePoint" />
            <mxPoint x="390" y="410" as="targetPoint" />
          </mxGeometry>
        </mxCell>
        <mxCell id="J7mu65JZnzgbX4srb6xb-36" value="" style="endArrow=none;html=1;rounded=0;" edge="1" parent="1" source="J7mu65JZnzgbX4srb6xb-23" target="J7mu65JZnzgbX4srb6xb-13">
          <mxGeometry width="50" height="50" relative="1" as="geometry">
            <mxPoint x="340" y="460" as="sourcePoint" />
            <mxPoint x="390" y="410" as="targetPoint" />
          </mxGeometry>
        </mxCell>
        <mxCell id="J7mu65JZnzgbX4srb6xb-37" value="" style="endArrow=none;html=1;rounded=0;strokeWidth=0.5;" edge="1" parent="1" source="J7mu65JZnzgbX4srb6xb-19" target="J7mu65JZnzgbX4srb6xb-21">
          <mxGeometry width="50" height="50" relative="1" as="geometry">
            <mxPoint x="340" y="460" as="sourcePoint" />
            <mxPoint x="390" y="410" as="targetPoint" />
          </mxGeometry>
        </mxCell>
        <mxCell id="J7mu65JZnzgbX4srb6xb-38" value="" style="endArrow=none;html=1;rounded=0;" edge="1" parent="1" source="J7mu65JZnzgbX4srb6xb-19" target="J7mu65JZnzgbX4srb6xb-13">
          <mxGeometry width="50" height="50" relative="1" as="geometry">
            <mxPoint x="340" y="460" as="sourcePoint" />
            <mxPoint x="390" y="410" as="targetPoint" />
          </mxGeometry>
        </mxCell>
        <mxCell id="J7mu65JZnzgbX4srb6xb-42" value="" style="ellipse;whiteSpace=wrap;html=1;aspect=fixed;fillColor=#fff2cc;strokeColor=#d6b656;" vertex="1" parent="1">
          <mxGeometry x="409" y="370" width="20" height="20" as="geometry" />
        </mxCell>
        <mxCell id="J7mu65JZnzgbX4srb6xb-43" value="" style="endArrow=none;html=1;rounded=0;" edge="1" parent="1" source="J7mu65JZnzgbX4srb6xb-42" target="J7mu65JZnzgbX4srb6xb-6">
          <mxGeometry width="50" height="50" relative="1" as="geometry">
            <mxPoint x="426" y="413" as="sourcePoint" />
            <mxPoint x="403" y="452" as="targetPoint" />
          </mxGeometry>
        </mxCell>
        <mxCell id="J7mu65JZnzgbX4srb6xb-44" value="" style="endArrow=none;html=1;rounded=0;" edge="1" parent="1" source="J7mu65JZnzgbX4srb6xb-54" target="J7mu65JZnzgbX4srb6xb-2">
          <mxGeometry width="50" height="50" relative="1" as="geometry">
            <mxPoint x="429" y="450" as="sourcePoint" />
            <mxPoint x="390" y="410" as="targetPoint" />
          </mxGeometry>
        </mxCell>
        <mxCell id="J7mu65JZnzgbX4srb6xb-45" value="" style="endArrow=none;html=1;rounded=0;strokeWidth=0.5;" edge="1" parent="1" source="J7mu65JZnzgbX4srb6xb-8" target="J7mu65JZnzgbX4srb6xb-7">
          <mxGeometry width="50" height="50" relative="1" as="geometry">
            <mxPoint x="310" y="430" as="sourcePoint" />
            <mxPoint x="360" y="380" as="targetPoint" />
          </mxGeometry>
        </mxCell>
        <mxCell id="J7mu65JZnzgbX4srb6xb-46" value="" style="endArrow=none;html=1;rounded=0;strokeWidth=0.5;" edge="1" parent="1" source="J7mu65JZnzgbX4srb6xb-4" target="J7mu65JZnzgbX4srb6xb-3">
          <mxGeometry width="50" height="50" relative="1" as="geometry">
            <mxPoint x="227" y="384" as="sourcePoint" />
            <mxPoint x="313" y="446" as="targetPoint" />
          </mxGeometry>
        </mxCell>
        <mxCell id="J7mu65JZnzgbX4srb6xb-47" value="" style="ellipse;whiteSpace=wrap;html=1;aspect=fixed;fillColor=#fff2cc;strokeColor=#d6b656;" vertex="1" parent="1">
          <mxGeometry x="225" y="370" width="20" height="20" as="geometry" />
        </mxCell>
        <mxCell id="J7mu65JZnzgbX4srb6xb-48" value="" style="endArrow=none;html=1;rounded=0;strokeWidth=0.5;" edge="1" parent="1" source="J7mu65JZnzgbX4srb6xb-4" target="J7mu65JZnzgbX4srb6xb-47">
          <mxGeometry width="50" height="50" relative="1" as="geometry">
            <mxPoint x="274" y="420" as="sourcePoint" />
            <mxPoint x="256" y="435" as="targetPoint" />
          </mxGeometry>
        </mxCell>
        <mxCell id="J7mu65JZnzgbX4srb6xb-50" value="" style="ellipse;whiteSpace=wrap;html=1;aspect=fixed;fillColor=#fff2cc;strokeColor=#d6b656;" vertex="1" parent="1">
          <mxGeometry x="157.5" y="465" width="15" height="15" as="geometry" />
        </mxCell>
        <mxCell id="J7mu65JZnzgbX4srb6xb-51" value="" style="endArrow=none;html=1;rounded=0;strokeWidth=0.5;" edge="1" parent="1" source="J7mu65JZnzgbX4srb6xb-23" target="J7mu65JZnzgbX4srb6xb-50">
          <mxGeometry width="50" height="50" relative="1" as="geometry">
            <mxPoint x="183" y="448" as="sourcePoint" />
            <mxPoint x="195" y="467" as="targetPoint" />
          </mxGeometry>
        </mxCell>
        <mxCell id="J7mu65JZnzgbX4srb6xb-52" value="" style="ellipse;whiteSpace=wrap;html=1;aspect=fixed;fillColor=#fff2cc;strokeColor=#d6b656;" vertex="1" parent="1">
          <mxGeometry x="120" y="465.67" width="15" height="15" as="geometry" />
        </mxCell>
        <mxCell id="J7mu65JZnzgbX4srb6xb-53" value="" style="endArrow=none;html=1;rounded=0;strokeWidth=0.5;" edge="1" parent="1" target="J7mu65JZnzgbX4srb6xb-52" source="J7mu65JZnzgbX4srb6xb-23">
          <mxGeometry width="50" height="50" relative="1" as="geometry">
            <mxPoint x="139.3964779177595" y="447.49774858092957" as="sourcePoint" />
            <mxPoint x="157.5" y="467.67" as="targetPoint" />
          </mxGeometry>
        </mxCell>
        <mxCell id="J7mu65JZnzgbX4srb6xb-54" value="" style="ellipse;whiteSpace=wrap;html=1;aspect=fixed;fillColor=#fff2cc;strokeColor=#d6b656;" vertex="1" parent="1">
          <mxGeometry x="411.5" y="455" width="15" height="15" as="geometry" />
        </mxCell>
        <mxCell id="J7mu65JZnzgbX4srb6xb-55" value="" style="ellipse;whiteSpace=wrap;html=1;aspect=fixed;fillColor=#fff2cc;strokeColor=#d6b656;" vertex="1" parent="1">
          <mxGeometry x="210" y="345" width="15" height="15" as="geometry" />
        </mxCell>
        <mxCell id="J7mu65JZnzgbX4srb6xb-56" value="" style="endArrow=none;html=1;rounded=0;strokeWidth=0.5;" edge="1" parent="1" target="J7mu65JZnzgbX4srb6xb-55" source="J7mu65JZnzgbX4srb6xb-47">
          <mxGeometry width="50" height="50" relative="1" as="geometry">
            <mxPoint x="200.5" y="340" as="sourcePoint" />
            <mxPoint x="247.5" y="347" as="targetPoint" />
          </mxGeometry>
        </mxCell>
        <mxCell id="J7mu65JZnzgbX4srb6xb-57" value="" style="ellipse;whiteSpace=wrap;html=1;aspect=fixed;fillColor=#fff2cc;strokeColor=#d6b656;" vertex="1" parent="1">
          <mxGeometry x="290" y="345" width="15" height="15" as="geometry" />
        </mxCell>
        <mxCell id="J7mu65JZnzgbX4srb6xb-58" value="" style="endArrow=none;html=1;rounded=0;strokeWidth=0.5;" edge="1" parent="1" target="J7mu65JZnzgbX4srb6xb-57" source="J7mu65JZnzgbX4srb6xb-1">
          <mxGeometry width="50" height="50" relative="1" as="geometry">
            <mxPoint x="290" y="340" as="sourcePoint" />
            <mxPoint x="337" y="347" as="targetPoint" />
          </mxGeometry>
        </mxCell>
        <mxCell id="J7mu65JZnzgbX4srb6xb-59" value="" style="ellipse;whiteSpace=wrap;html=1;aspect=fixed;fillColor=#fff2cc;strokeColor=#d6b656;" vertex="1" parent="1">
          <mxGeometry x="205" y="390" width="15" height="15" as="geometry" />
        </mxCell>
        <mxCell id="J7mu65JZnzgbX4srb6xb-60" value="" style="endArrow=none;html=1;rounded=0;strokeWidth=0.5;" edge="1" parent="1" target="J7mu65JZnzgbX4srb6xb-59" source="J7mu65JZnzgbX4srb6xb-47">
          <mxGeometry width="50" height="50" relative="1" as="geometry">
            <mxPoint x="195.5" y="385" as="sourcePoint" />
            <mxPoint x="242.5" y="392" as="targetPoint" />
          </mxGeometry>
        </mxCell>
        <mxCell id="J7mu65JZnzgbX4srb6xb-61" value="" style="ellipse;whiteSpace=wrap;html=1;aspect=fixed;fillColor=#fff2cc;strokeColor=#d6b656;" vertex="1" parent="1">
          <mxGeometry x="389" y="345" width="15" height="15" as="geometry" />
        </mxCell>
        <mxCell id="J7mu65JZnzgbX4srb6xb-62" value="" style="endArrow=none;html=1;rounded=0;strokeWidth=1;" edge="1" parent="1" target="J7mu65JZnzgbX4srb6xb-61" source="J7mu65JZnzgbX4srb6xb-42">
          <mxGeometry width="50" height="50" relative="1" as="geometry">
            <mxPoint x="414" y="385" as="sourcePoint" />
            <mxPoint x="461" y="392" as="targetPoint" />
          </mxGeometry>
        </mxCell>
        <mxCell id="J7mu65JZnzgbX4srb6xb-63" value="" style="endArrow=none;html=1;rounded=0;" edge="1" parent="1" source="J7mu65JZnzgbX4srb6xb-3" target="J7mu65JZnzgbX4srb6xb-22">
          <mxGeometry width="50" height="50" relative="1" as="geometry">
            <mxPoint x="280" y="490" as="sourcePoint" />
            <mxPoint x="338" y="490" as="targetPoint" />
          </mxGeometry>
        </mxCell>
      </root>
    </mxGraphModel>
  </diagram>
</mxfile>
